<svg xmlns="http://www.w3.org/2000/svg" width="28" height="32" viewBox="0 0 28 32">
  <defs>
    <linearGradient id="g" x1="0" x2="0" y1="0" y2="1">
      <stop offset="0" stop-color="#7c3aed"/>
      <stop offset="1" stop-color="#2e1065"/>
    </linearGradient>
  </defs>
  <path d="M11 2 Q12 1 13 2 L13 15 L14 15 L14 4 Q15 3 16 4 L16 16 L17 16 L17 6 Q18 5 19 6 L19 17 L20 17 L20 9 Q21 8 22 9 L23 12 Q25 16 25 21 Q25 30 15 30 Q5 30 5 21 L5 14 Q5 12 7 12 Q9 12 10 14 L11 14 Z"
    fill="url(#g)" stroke="#facc15" stroke-width="1.2" stroke-linejoin="round"/>
  <rect x="5" y="24" width="20" height="2.4" fill="#facc15" opacity="0.55"/>
  <circle cx="15" cy="21" r="2.8" fill="#22d3ee" stroke="#fef3c7" stroke-width="0.6"/>
  <circle cx="14" cy="20" r="0.9" fill="#ffffff" opacity="0.9"/>
</svg>
